<svg xmlns="http://www.w3.org/2000/svg" viewBox="0 0 24 24" role="img" aria-label="Google">
  <path fill="#4285F4" d="M22 12.2c0-.7-.1-1.4-.2-2H12v3.8h5.7a4.6 4.6 0 0 1-2 3v2.5h3.2c1.9-1.8 3.1-4.4 3.1-7.3z"/>
  <path fill="#34A853" d="M12 22c2.7 0 5-0.9 6.6-2.4l-3.2-2.5c-0.9.6-2 1-3.4 1-2.6 0-4.8-1.8-5.6-4.2H3v2.6A10 10 0 0 0 12 22z"/>
  <path fill="#FBBC05" d="M6.4 14c-0.2-0.6-0.3-1.2-0.3-1.9s0.1-1.3 0.3-1.9V7.6H3A10 10 0 0 0 3 12c0 1.6 0.4 3.1 1 4.4l2.4-2z"/>
  <path fill="#EA4335" d="M12 5.4c1.5 0 2.8.5 3.8 1.5l2.8-2.8A10 10 0 0 0 3 7.6l3.4 2.6C7.2 7.2 9.4 5.4 12 5.4z"/>
</svg>
